<svg xmlns="http://www.w3.org/2000/svg" viewBox="0 0 32 32"><defs><style>.a{fill:#fff;}.b{fill:#f6ae2d;}.c{fill:#000842;}</style></defs><rect class="a" width="32" height="32"/><path class="b" d="M16.68,7.35a9.47,9.47,0,0,1,5.22,2.73,10,10,0,0,1,2.72,5.22L23,15.57a7.8,7.8,0,0,0-2.26-4.33A8.17,8.17,0,0,0,16.41,9Z"/><path class="b" d="M28.37,15.34a14.41,14.41,0,0,0-4-7.72,14.21,14.21,0,0,0-7.72-4L17,2A15.92,15.92,0,0,1,30,15Z"/><path class="c" d="M26,27a7.39,7.39,0,0,1-.73.77A16,16,0,0,0,24.11,29a3,3,0,0,1-2.36,1h-.3a14.67,14.67,0,0,1-4.92-1.5,27.74,27.74,0,0,1-9.24-7.25,25.93,25.93,0,0,1-4.53-7.51,8.77,8.77,0,0,1-.69-3.93A3,3,0,0,1,2.93,8L5.06,5.82a1.38,1.38,0,0,1,1-.46,1.42,1.42,0,0,1,1,.46c.4.37.73.74,1.13,1.13l.6.6,1.69,1.7a1.4,1.4,0,0,1,.5,1,1.39,1.39,0,0,1-.5,1l-.53.54c-.53.53-1,1-1.56,1.53l0,0A1.29,1.29,0,0,0,8,14.74s0,0,0,.06a12.78,12.78,0,0,0,2,3.29,23,23,0,0,0,5.56,5.06c.26.17.53.3.76.43s.43.23.63.33c0,0,0,0,.07,0a1.35,1.35,0,0,0,.6.16,1.33,1.33,0,0,0,.93-.43l2.16-2.16a1.49,1.49,0,0,1,1-.47,1.49,1.49,0,0,1,.93.47L26.08,25A1.27,1.27,0,0,1,26,27Z"/></svg>